# xmcd
#
# Track frame offsets: 
#        150
#        14854
#        28208
#        34593
#        35815
#        37582
#        40566
#        41157
#        46792
#        48510
#        60782
#        61532
#        62437
#        75535
#        77575
#        88232
#        101264
#        114911
#        118021
#        123709
#        133765
#        135715
#        143894
#        148258
#        151792
#        153394
#        161410
#        174359
#        187324
#        193086
#        202068
#        203641
#        214448
#        225887
#        227106
#        238261
#        248951
#        262113
#        273788
#        282506
#        282974
#        293147
#
# Disc length: 4019 seconds
#
# Revision: 0
# Processed by: cddbd v1.5.2PL0 Copyright (c) Steve Scherf et al.
# Submitted via: ExactAudioCopy v0.95b3
#
DISCID=610fb12a
DTITLE=The Beatles  - Help!  Deluxe - Disc 3 - sessions  FLAC
DYEAR=1900
DGENRE=
TTITLE0=Ticket To Ride - take 2
TTITLE1=Yes It Is - take 1
TTITLE2=Yes It Is - take 2
TTITLE3=Yes It Is - take 3
TTITLE4=Yes It Is - take 4
TTITLE5=Yes It Is - take 5
TTITLE6=Yes It Is - take 6
TTITLE7=Yes It Is - take 7
TTITLE8=Yes It Is - take 8
TTITLE9=Yes It Is - take 9
TTITLE10=Yes It Is - take 10
TTITLE11=Yes It Is - take 11
TTITLE12=Yes It Is - take 14
TTITLE13=You've Got To Hide Your Love Away - take 1
TTITLE14=You've Got To Hide Your Love Away - take 5
TTITLE15=If You've Got Trouble
TTITLE16=That Means A Lot - take 1
TTITLE17=That Means A Lot - rehearsal
TTITLE18=That Means A Lot - take 20
TTITLE19=That Means A Lot - take 22
TTITLE20=That Means A Lot - take 23
TTITLE21=That Means A Lot - take 24
TTITLE22=That Means A Lot - test
TTITLE23=Help - take 1
TTITLE24=Help - take 2
TTITLE25=Help - take 3
TTITLE26=Help - take 4
TTITLE27=Help - take 5
TTITLE28=Help - take 6
TTITLE29=Help - take 78
TTITLE30=Help - take 8
TTITLE31=Help - take 9
TTITLE32=Help - take 10
TTITLE33=Help - take 11
TTITLE34=Help - take 12
TTITLE35=Help - take 13
TTITLE36=I'm Down - take 1
TTITLE37=Yesterday - take 1
TTITLE38=It's Only Love - take 2
TTITLE39=It's Only Love - take 3
TTITLE40=Wait - work in progress oufake
TTITLE41=Yes It Is (anthology edit)
EXTD=
EXTT0=
EXTT1=
EXTT2=
EXTT3=
EXTT4=
EXTT5=
EXTT6=
EXTT7=
EXTT8=
EXTT9=
EXTT10=
EXTT11=
EXTT12=
EXTT13=
EXTT14=
EXTT15=
EXTT16=
EXTT17=
EXTT18=
EXTT19=
EXTT20=
EXTT21=
EXTT22=
EXTT23=
EXTT24=
EXTT25=
EXTT26=
EXTT27=
EXTT28=
EXTT29=
EXTT30=
EXTT31=
EXTT32=
EXTT33=
EXTT34=
EXTT35=
EXTT36=
EXTT37=
EXTT38=
EXTT39=
EXTT40=
EXTT41=
PLAYORDER=
